<?xml version="1.0" encoding="UTF-8" standalone="no"?> <svg width="64" height="64" viewBox="0 0 64 64" fill="none" xmlns="http://www.w3.org/2000/svg">
<path d="M5 12H59C59.5304 12 60.0391 12.2107 60.4142 12.5858C60.7893 12.9609 61 13.4696 61 14V43H3V14C3 13.4696 3.21071 12.9609 3.58579 12.5858C3.96086 12.2107 4.46957 12 5 12V12Z" fill="#2488FF"/>
<path d="M33 43H61V15C61 22.4261 58.05 29.548 52.799 34.799C47.548 40.05 40.4261 43 33 43Z" fill="#006DF0"/>
<path d="M55 5H9V39H55V5Z" fill="#8B5E3C"/>
<path d="M32 3H12V36H32V3Z" fill="#FFE477"/>
<path d="M52 3H32V36H52V3Z" fill="#FFEB99"/>
<path d="M38 49H26V55H38V49Z" fill="#6D6E71"/>
<path d="M45 57V61H19V57C19.0016 56.4701 19.2128 55.9623 19.5875 55.5875C19.9623 55.2128 20.4701 55.0016 21 55H43C43.5299 55.0016 44.0377 55.2128 44.4125 55.5875C44.7872 55.9623 44.9984 56.4701 45 57V57Z" fill="#939598"/>
<path d="M61 43V47C60.9984 47.5299 60.7872 48.0377 60.4125 48.4125C60.0377 48.7872 59.5299 48.9984 59 49H5C4.47005 48.9984 3.96227 48.7872 3.58753 48.4125C3.2128 48.0377 3.00158 47.5299 3 47V43H61Z" fill="#6D6E71"/>
<path d="M38 49H26V51H38V49Z" fill="#58595B"/>
<path d="M48 7H36V15H48V7Z" fill="#FF9811"/>
<path d="M28 7H16V15H28V7Z" fill="#A4E276"/>
<path d="M53 53H35V61H53V53Z" fill="#D80027"/>
<path d="M28 32H12V36H32V31.6C30.6834 31.867 29.3434 32.001 28 32V32Z" fill="#FFDE55"/>
<path d="M48 3V12C48.0009 16.6106 46.4089 21.0799 43.4932 24.6516C40.5776 28.2233 36.5175 30.6779 32 31.6V36H52V3H48Z" fill="#FFE477"/>
<path d="M53 35V46.59C53.0003 47.0363 52.9121 47.4782 52.7405 47.8902C52.5688 48.3022 52.3171 48.676 52 48.99C52 49 52 49 51.99 49C51.3564 49.6341 51.0003 50.4936 51 51.39V53H37V51.27C37.0026 50.4829 36.7692 49.7131 36.33 49.06L32.3 43L29.01 38.06L29.5 37.56C29.807 37.2479 30.1786 37.0067 30.5887 36.8535C30.9988 36.7003 31.4374 36.6386 31.8739 36.6729C32.3103 36.7072 32.734 36.8366 33.1151 37.0521C33.4962 37.2675 33.8255 37.5638 34.08 37.92L37 42V27C37 26.4696 37.2107 25.9609 37.5858 25.5858C37.9609 25.2107 38.4696 25 39 25C39.5304 25 40.0391 25.2107 40.4142 25.5858C40.7893 25.9609 41 26.4696 41 27V35C41 34.4696 41.2107 33.9609 41.5858 33.5858C41.9609 33.2107 42.4696 33 43 33C43.5304 33 44.0391 33.2107 44.4142 33.5858C44.7893 33.9609 45 34.4696 45 35C45 34.4696 45.2107 33.9609 45.5858 33.5858C45.9609 33.2107 46.4696 33 47 33C47.5304 33 48.0391 33.2107 48.4142 33.5858C48.7893 33.9609 49 34.4696 49 35C49 34.4696 49.2107 33.9609 49.5858 33.5858C49.9609 33.2107 50.4696 33 51 33C51.5304 33 52.0391 33.2107 52.4142 33.5858C52.7893 33.9609 53 34.4696 53 35Z" fill="#FFBCAB"/>
<path d="M53 35V46.59C53.0003 47.0363 52.9121 47.4782 52.7405 47.8902C52.5688 48.3022 52.3171 48.676 52 48.99C51.6837 49.3046 51.4325 49.6786 51.2609 50.0904C51.0893 50.5022 51.0007 50.9439 51 51.39V53H50V51.39C50.0007 50.9439 50.0893 50.5022 50.2609 50.0904C50.4325 49.6786 50.6837 49.3046 51 48.99C51.3171 48.676 51.5688 48.3022 51.7405 47.8902C51.9121 47.4782 52.0003 47.0363 52 46.59V35C51.9986 34.5577 51.8506 34.1284 51.5792 33.7792C51.3077 33.43 50.9282 33.1806 50.5 33.07C50.6632 33.0265 50.8311 33.0029 51 33C51.5299 33.0016 52.0377 33.2128 52.4125 33.5875C52.7872 33.9623 52.9984 34.4701 53 35V35Z" fill="#FF9478"/>
<path d="M49 35V37H48V35C48.0014 34.7374 47.9499 34.4772 47.8485 34.235C47.7471 33.9927 47.598 33.7734 47.41 33.59C47.159 33.338 46.8446 33.1583 46.5 33.07C46.6632 33.0265 46.8311 33.0029 47 33C47.5292 33.0039 48.0356 33.2159 48.4099 33.5901C48.7841 33.9644 48.9961 34.4708 49 35V35Z" fill="#FF9478"/>
<path d="M45 35V37H44V35C44.0014 34.7374 43.9499 34.4772 43.8485 34.235C43.7471 33.9927 43.598 33.7734 43.41 33.59C43.159 33.338 42.8446 33.1583 42.5 33.07C42.6632 33.0265 42.8311 33.0029 43 33C43.5292 33.0039 44.0356 33.2159 44.4099 33.5901C44.7841 33.9644 44.9961 34.4708 45 35V35Z" fill="#FF9478"/>
<path d="M41 27V37H40V27C40.0014 26.7374 39.9499 26.4772 39.8485 26.235C39.7471 25.9927 39.598 25.7734 39.41 25.59C39.159 25.338 38.8446 25.1583 38.5 25.07C38.6632 25.0265 38.8311 25.0029 39 25C39.5292 25.0039 40.0356 25.2159 40.4099 25.5901C40.7841 25.9643 40.9961 26.4708 41 27V27Z" fill="#FF9478"/>
<path d="M34.082 37.915C33.7529 37.4553 33.2999 37.0984 32.7759 36.886C32.2519 36.6736 31.6784 36.6143 31.122 36.715C31.5122 36.7744 31.8865 36.9112 32.2231 37.1173C32.5597 37.3233 32.8517 37.5946 33.082 37.915L37 43.268V41.881L34.082 37.915Z" fill="#FF9478"/>
<path d="M56 47H57C57.2652 47 57.5196 46.8946 57.7071 46.7071C57.8946 46.5196 58 46.2652 58 46C58 45.7348 57.8946 45.4804 57.7071 45.2929C57.5196 45.1054 57.2652 45 57 45H56C55.7348 45 55.4804 45.1054 55.2929 45.2929C55.1054 45.4804 55 45.7348 55 46C55 46.2652 55.1054 46.5196 55.2929 46.7071C55.4804 46.8946 55.7348 47 56 47Z" fill="#F1F2F2"/>
<path d="M48 19H36C35.7348 19 35.4804 19.1054 35.2929 19.2929C35.1054 19.4804 35 19.7348 35 20C35 20.2652 35.1054 20.5196 35.2929 20.7071C35.4804 20.8946 35.7348 21 36 21H48C48.2652 21 48.5196 20.8946 48.7071 20.7071C48.8946 20.5196 49 20.2652 49 20C49 19.7348 48.8946 19.4804 48.7071 19.2929C48.5196 19.1054 48.2652 19 48 19Z" fill="#FFCD00"/>
<path d="M48 23H44C43.7348 23 43.4804 23.1054 43.2929 23.2929C43.1054 23.4804 43 23.7348 43 24C43 24.2652 43.1054 24.5196 43.2929 24.7071C43.4804 24.8946 43.7348 25 44 25H48C48.2652 25 48.5196 24.8946 48.7071 24.7071C48.8946 24.5196 49 24.2652 49 24C49 23.7348 48.8946 23.4804 48.7071 23.2929C48.5196 23.1054 48.2652 23 48 23Z" fill="#FFCD00"/>
<path d="M48 27H44C43.7348 27 43.4804 27.1054 43.2929 27.2929C43.1054 27.4804 43 27.7348 43 28C43 28.2652 43.1054 28.5196 43.2929 28.7071C43.4804 28.8946 43.7348 29 44 29H48C48.2652 29 48.5196 28.8946 48.7071 28.7071C48.8946 28.5196 49 28.2652 49 28C49 27.7348 48.8946 27.4804 48.7071 27.2929C48.5196 27.1054 48.2652 27 48 27Z" fill="#FFCD00"/>
<path d="M28 23H16C15.7348 23 15.4804 23.1054 15.2929 23.2929C15.1054 23.4804 15 23.7348 15 24C15 24.2652 15.1054 24.5196 15.2929 24.7071C15.4804 24.8946 15.7348 25 16 25H28C28.2652 25 28.5196 24.8946 28.7071 24.7071C28.8946 24.5196 29 24.2652 29 24C29 23.7348 28.8946 23.4804 28.7071 23.2929C28.5196 23.1054 28.2652 23 28 23Z" fill="#FFCD00"/>
<path d="M28 19H16C15.7348 19 15.4804 19.1054 15.2929 19.2929C15.1054 19.4804 15 19.7348 15 20C15 20.2652 15.1054 20.5196 15.2929 20.7071C15.4804 20.8946 15.7348 21 16 21H28C28.2652 21 28.5196 20.8946 28.7071 20.7071C28.8946 20.5196 29 20.2652 29 20C29 19.7348 28.8946 19.4804 28.7071 19.2929C28.5196 19.1054 28.2652 19 28 19Z" fill="#FFCD00"/>
<path d="M28 27H16C15.7348 27 15.4804 27.1054 15.2929 27.2929C15.1054 27.4804 15 27.7348 15 28C15 28.2652 15.1054 28.5196 15.2929 28.7071C15.4804 28.8946 15.7348 29 16 29H28C28.2652 29 28.5196 28.8946 28.7071 28.7071C28.8946 28.5196 29 28.2652 29 28C29 27.7348 28.8946 27.4804 28.7071 27.2929C28.5196 27.1054 28.2652 27 28 27Z" fill="#FFCD00"/>
<path d="M28 31H16C15.7348 31 15.4804 31.1054 15.2929 31.2929C15.1054 31.4804 15 31.7348 15 32C15 32.2652 15.1054 32.5196 15.2929 32.7071C15.4804 32.8946 15.7348 33 16 33H28C28.2652 33 28.5196 32.8946 28.7071 32.7071C28.8946 32.5196 29 32.2652 29 32C29 31.7348 28.8946 31.4804 28.7071 31.2929C28.5196 31.1054 28.2652 31 28 31Z" fill="#FFCD00"/>
<path d="M50 56H49C48.7348 56 48.4804 56.1054 48.2929 56.2929C48.1054 56.4804 48 56.7348 48 57C48 57.2652 48.1054 57.5196 48.2929 57.7071C48.4804 57.8946 48.7348 58 49 58H50C50.2652 58 50.5196 57.8946 50.7071 57.7071C50.8946 57.5196 51 57.2652 51 57C51 56.7348 50.8946 56.4804 50.7071 56.2929C50.5196 56.1054 50.2652 56 50 56Z" fill="#F1F2F2"/>
</svg>
