<?xml version="1.0" encoding="UTF-8" standalone="no"?> <svg xmlns="http://www.w3.org/2000/svg" xmlns:xlink="http://www.w3.org/1999/xlink" viewBox="0 0 512 512"><defs><linearGradient id="linear-gradient" x1="125.41" y1="291.11" x2="384.02" y2="291.11" gradientUnits="userSpaceOnUse"><stop offset="0" stop-color="#21ca85"/><stop offset="1" stop-color="#53e6cf"/></linearGradient><linearGradient id="linear-gradient-2" x1="384.02" y1="404.95" x2="137.26" y2="404.95" gradientUnits="userSpaceOnUse"><stop offset="0" stop-color="#fff7b3"/><stop offset="1" stop-color="#cff7b3"/></linearGradient><linearGradient id="linear-gradient-3" x1="125.41" y1="229.45" x2="384.02" y2="229.45" gradientUnits="userSpaceOnUse"><stop offset="0" stop-color="#373e74"/><stop offset="1" stop-color="#295ca5"/></linearGradient><linearGradient id="linear-gradient-4" x1="384.02" y1="343.3" x2="137.26" y2="343.3" xlink:href="#linear-gradient-2"/><linearGradient id="linear-gradient-5" x1="330.46" y1="345.16" x2="330.46" y2="429.33" gradientUnits="userSpaceOnUse"><stop offset="0" stop-color="#fd6f55"/><stop offset="1" stop-color="#fd9f55"/></linearGradient></defs><title>Courses</title><g id="Courses"><path d="M143.12,147.41H384a0,0,0,0,1,0,0V434.8a0,0,0,0,1,0,0H143.12a17.71,17.71,0,0,1-17.71-17.71v-252A17.71,17.71,0,0,1,143.12,147.41Z" style="fill:url(#linear-gradient)"/><path d="M384,422.67H155A17.71,17.71,0,0,1,137.26,405h0A17.71,17.71,0,0,1,155,387.24H384Z" style="fill:url(#linear-gradient-2)"/><path d="M143.12,85.76H384a0,0,0,0,1,0,0V373.15a0,0,0,0,1,0,0H143.12a17.71,17.71,0,0,1-17.71-17.71v-252A17.71,17.71,0,0,1,143.12,85.76Z" style="fill:url(#linear-gradient-3)"/><path d="M384,361H155a17.71,17.71,0,0,1-17.71-17.71h0A17.71,17.71,0,0,1,155,325.59H384Z" style="fill:url(#linear-gradient-4)"/><polygon points="305.46 345.15 355.46 345.15 355.46 429.33 330.46 409.33 305.46 429.33 305.46 345.15" style="fill:url(#linear-gradient-5)"/></g></svg>