<?xml version="1.0" encoding="UTF-8" standalone="no"?> <svg width="512" height="512" viewBox="0 0 512 512" fill="none" xmlns="http://www.w3.org/2000/svg">
<path d="M152 88H24V232H152V88Z" fill="#31C292"/>
<path d="M421.794 342.005C420.036 327.912 414.558 314.54 405.923 303.264C397.287 291.988 385.806 283.214 372.657 277.844L280 240L256 232L232 240L139.136 278.238C126.042 283.629 114.615 292.4 106.02 303.653C97.4244 314.906 91.9702 328.239 90.2139 342.29L72 488H440L421.794 342.005Z" fill="#576CD3"/>
<path d="M271.167 304H240.833L220.517 488.001H291.483L271.167 304Z" fill="#31C292"/>
<path d="M145.076 488.001C143.936 488.001 142.808 487.758 141.77 487.287C140.731 486.816 139.805 486.129 139.053 485.271C138.301 484.414 137.742 483.406 137.411 482.314C137.081 481.223 136.987 480.073 137.137 478.943L152.07 366.943C152.209 365.901 152.552 364.898 153.078 363.989C153.605 363.08 154.306 362.283 155.14 361.645C155.975 361.007 156.927 360.539 157.942 360.269C158.957 359.999 160.016 359.931 161.057 360.07C162.098 360.209 163.102 360.552 164.011 361.078C164.92 361.605 165.716 362.306 166.355 363.14C166.993 363.975 167.46 364.927 167.731 365.942C168.001 366.957 168.068 368.016 167.93 369.057L152.996 481.057C152.74 482.977 151.796 484.739 150.34 486.016C148.883 487.293 147.013 487.998 145.076 488.001V488.001Z" fill="#4B64BF"/>
<path d="M366.924 488.001C364.987 487.998 363.117 487.293 361.66 486.016C360.204 484.739 359.26 482.977 359.004 481.057L344.07 369.057C343.931 368.016 343.999 366.957 344.269 365.942C344.539 364.927 345.007 363.975 345.645 363.14C346.283 362.306 347.08 361.605 347.989 361.078C348.898 360.552 349.901 360.209 350.943 360.07C351.984 359.931 353.043 359.999 354.058 360.269C355.073 360.539 356.025 361.007 356.859 361.645C357.694 362.283 358.395 363.08 358.921 363.989C359.448 364.898 359.791 365.901 359.93 366.943L374.863 478.943C375.143 481.046 374.577 483.174 373.288 484.859C371.999 486.545 370.094 487.649 367.991 487.93C367.637 487.977 367.281 488.001 366.924 488.001V488.001Z" fill="#4B64BF"/>
<path d="M215.989 392.001C214.022 391.998 212.125 391.271 210.66 389.958C209.195 388.645 208.265 386.838 208.048 384.883L200.048 312.883C199.814 310.775 200.427 308.659 201.752 307.002C203.078 305.346 205.007 304.283 207.116 304.049C209.225 303.815 211.34 304.428 212.997 305.753C214.654 307.079 215.716 309.008 215.95 311.117L223.95 383.117C224.185 385.226 223.572 387.341 222.246 388.998C220.921 390.654 218.992 391.717 216.883 391.951C216.586 391.984 216.288 392.001 215.989 392.001V392.001Z" fill="#F4CF9B"/>
<path d="M296.011 392.001C295.712 392.001 295.414 391.984 295.117 391.951C293.009 391.717 291.079 390.654 289.754 388.998C288.429 387.341 287.816 385.226 288.05 383.117L296.05 311.117C296.284 309.008 297.347 307.079 299.003 305.753C300.66 304.428 302.776 303.815 304.884 304.049C306.993 304.283 308.923 305.346 310.248 307.002C311.573 308.659 312.187 310.775 311.952 312.883L303.952 384.883C303.735 386.838 302.805 388.645 301.34 389.958C299.875 391.271 297.978 391.998 296.011 392.001V392.001Z" fill="#F4CF9B"/>
<path d="M304 384H208V488H304V384Z" fill="#F1BC75"/>
<path d="M256 432C253.878 432 251.843 431.157 250.343 429.657C248.843 428.157 248 426.122 248 424V416C248 413.878 248.843 411.843 250.343 410.343C251.843 408.843 253.878 408 256 408C258.122 408 260.157 408.843 261.657 410.343C263.157 411.843 264 413.878 264 416V424C264 426.122 263.157 428.157 261.657 429.657C260.157 431.157 258.122 432 256 432V432Z" fill="#F9DBB7"/>
<path d="M272 464H240C237.878 464 235.843 463.157 234.343 461.657C232.843 460.157 232 458.122 232 456C232 453.878 232.843 451.843 234.343 450.343C235.843 448.843 237.878 448 240 448H272C274.122 448 276.157 448.843 277.657 450.343C279.157 451.843 280 453.878 280 456C280 458.122 279.157 460.157 277.657 461.657C276.157 463.157 274.122 464 272 464Z" fill="#F9DBB7"/>
<path d="M472 88H376C367.163 88 360 95.1634 360 104V216C360 224.837 367.163 232 376 232H472C480.837 232 488 224.837 488 216V104C488 95.1634 480.837 88 472 88Z" fill="#46C89D"/>
<path d="M360 128H488V104C488 99.7565 486.314 95.6869 483.314 92.6863C480.313 89.6857 476.243 88 472 88H376C371.757 88 367.687 89.6857 364.686 92.6863C361.686 95.6869 360 99.7565 360 104V128Z" fill="#00B378"/>
<path d="M408 168H392C389.878 168 387.843 167.157 386.343 165.657C384.843 164.157 384 162.122 384 160C384 157.878 384.843 155.843 386.343 154.343C387.843 152.843 389.878 152 392 152H408C410.122 152 412.157 152.843 413.657 154.343C415.157 155.843 416 157.878 416 160C416 162.122 415.157 164.157 413.657 165.657C412.157 167.157 410.122 168 408 168Z" fill="#BDECDC"/>
<path d="M408 200H392C389.878 200 387.843 199.157 386.343 197.657C384.843 196.157 384 194.122 384 192C384 189.878 384.843 187.843 386.343 186.343C387.843 184.843 389.878 184 392 184H408C410.122 184 412.157 184.843 413.657 186.343C415.157 187.843 416 189.878 416 192C416 194.122 415.157 196.157 413.657 197.657C412.157 199.157 410.122 200 408 200Z" fill="#BDECDC"/>
<path d="M456 168H440C437.878 168 435.843 167.157 434.343 165.657C432.843 164.157 432 162.122 432 160C432 157.878 432.843 155.843 434.343 154.343C435.843 152.843 437.878 152 440 152H456C458.122 152 460.157 152.843 461.657 154.343C463.157 155.843 464 157.878 464 160C464 162.122 463.157 164.157 461.657 165.657C460.157 167.157 458.122 168 456 168Z" fill="#BDECDC"/>
<path d="M456 200H440C437.878 200 435.843 199.157 434.343 197.657C432.843 196.157 432 194.122 432 192C432 189.878 432.843 187.843 434.343 186.343C435.843 184.843 437.878 184 440 184H456C458.122 184 460.157 184.843 461.657 186.343C463.157 187.843 464 189.878 464 192C464 194.122 463.157 196.157 461.657 197.657C460.157 199.157 458.122 200 456 200Z" fill="#BDECDC"/>
<path d="M64 88V136L88 120L112 136V88H64Z" fill="#F9DBB7"/>
<path d="M120 176H56C53.8783 176 51.8434 175.157 50.3431 173.657C48.8429 172.157 48 170.122 48 168C48 165.878 48.8429 163.843 50.3431 162.343C51.8434 160.843 53.8783 160 56 160H120C122.122 160 124.157 160.843 125.657 162.343C127.157 163.843 128 165.878 128 168C128 170.122 127.157 172.157 125.657 173.657C124.157 175.157 122.122 176 120 176Z" fill="#BDECDC"/>
<path d="M120 208H56C53.8783 208 51.8434 207.157 50.3431 205.657C48.8429 204.157 48 202.122 48 200C48 197.878 48.8429 195.843 50.3431 194.343C51.8434 192.843 53.8783 192 56 192H120C122.122 192 124.157 192.843 125.657 194.343C127.157 195.843 128 197.878 128 200C128 202.122 127.157 204.157 125.657 205.657C124.157 207.157 122.122 208 120 208Z" fill="#BDECDC"/>
<path d="M336 336V262.872L280 240L256 232L232 240L176 263.059V336L256 256L336 336Z" fill="#3F589E"/>
<path d="M256 312C273.673 312 288 297.673 288 280C288 262.327 273.673 248 256 248C238.327 248 224 262.327 224 280C224 297.673 238.327 312 256 312Z" fill="#59CEA7"/>
<path d="M184 96V178.03C184 187.249 186.276 196.325 190.626 204.454C194.976 212.582 201.266 219.511 208.937 224.625L233.812 241.208C240.383 245.588 248.103 247.926 256 247.926C263.897 247.926 271.617 245.588 278.188 241.208L303.063 224.624C310.734 219.511 317.024 212.582 321.374 204.454C325.724 196.325 328 187.249 328 178.03V80L184 96Z" fill="#FCDCC8"/>
<path d="M256 24H360V32C360 51.0956 352.414 69.4091 338.912 82.9117C325.409 96.4143 307.096 104 288 104H253.823C244.368 104 235.006 105.862 226.27 109.481C217.535 113.099 209.598 118.402 202.912 125.088L184 144V96C184 76.9044 191.586 58.5909 205.088 45.0883C218.591 31.5857 236.904 24 256 24V24Z" fill="#D7A25B"/>
<path d="M88 96C105.673 96 120 81.6731 120 64C120 46.3269 105.673 32 88 32C70.3269 32 56 46.3269 56 64C56 81.6731 70.3269 96 88 96Z" fill="#EFB465"/>
<path d="M392 112C389.878 112 387.843 111.157 386.343 109.657C384.843 108.157 384 106.122 384 104V72C384 69.8783 384.843 67.8434 386.343 66.3431C387.843 64.8429 389.878 64 392 64C394.122 64 396.157 64.8429 397.657 66.3431C399.157 67.8434 400 69.8783 400 72V104C400 106.122 399.157 108.157 397.657 109.657C396.157 111.157 394.122 112 392 112V112Z" fill="#59CEA7"/>
<path d="M456 112C453.878 112 451.843 111.157 450.343 109.657C448.843 108.157 448 106.122 448 104V72C448 69.8783 448.843 67.8434 450.343 66.3431C451.843 64.8429 453.878 64 456 64C458.122 64 460.157 64.8429 461.657 66.3431C463.157 67.8434 464 69.8783 464 72V104C464 106.122 463.157 108.157 461.657 109.657C460.157 111.157 458.122 112 456 112V112Z" fill="#59CEA7"/>
</svg>
