<?xml version="1.0" encoding="UTF-8" standalone="no"?> <svg xmlns="http://www.w3.org/2000/svg" viewBox="0 0 64 64"><defs><style>.cls-1{fill:#fff89b;}.cls-2{fill:#ffdb43;}.cls-3{fill:#e3472c;}.cls-4{fill:#133442;}.cls-5{fill:#f7c09e;}.cls-6{fill:#ef937d;}</style></defs><g id="fill"><polygon class="cls-1" points="9 14 13 10 53 52 11 52 9 14"/><ellipse class="cls-2" cx="32" cy="53" rx="21" ry="8"/><polygon class="cls-2" points="51 10 55 14 53 52 11 52 51 10"/><path class="cls-3" d="M18,35h0a21.551,21.551,0,0,0,14,0h0v8.575a9.65,9.65,0,0,1-.967,4.215h0a9.3,9.3,0,0,1-4.1,4.215L25,53l-1.935-.995a9.3,9.3,0,0,1-4.1-4.215h0A9.65,9.65,0,0,1,18,43.575Z"/><path class="cls-4" d="M5.828,3h0a2.828,2.828,0,0,1,2,.828L11,7,7,11,3.828,7.828a2.828,2.828,0,0,1-.828-2H3A2.828,2.828,0,0,1,5.828,3Z"/><path class="cls-4" d="M58.172,3h0a2.828,2.828,0,0,0-2,.828L53,7l4,4,3.172-3.172a2.828,2.828,0,0,0,.828-2h0A2.828,2.828,0,0,0,58.172,3Z"/><path class="cls-4" d="M22,47.944a1,1,0,0,1-.448-1.894,9.956,9.956,0,0,1,6.671-.8,1,1,0,1,1-.448,1.949,7.953,7.953,0,0,0-5.329.638A.989.989,0,0,1,22,47.944Z"/><path class="cls-4" d="M24,42H22a1,1,0,0,1,0-2h2a1,1,0,0,1,0,2Z"/><path class="cls-5" d="M28,35h0a29.075,29.075,0,0,0,18,0h0V45.481a11.307,11.307,0,0,1-1.244,5.151h0a11.651,11.651,0,0,1-5.268,5.152L37,57l-2.488-1.216a11.651,11.651,0,0,1-5.268-5.152h0A11.307,11.307,0,0,1,28,45.481Z"/><path class="cls-6" d="M37,36.428V57l2.488-1.216a11.651,11.651,0,0,0,5.268-5.152A11.307,11.307,0,0,0,46,45.481V35A29.051,29.051,0,0,1,37,36.428Z"/><path class="cls-4" d="M37,52a9.951,9.951,0,0,1-4.447-1.045,1,1,0,1,1,.894-1.789,7.985,7.985,0,0,0,7.106,0,1,1,0,1,1,.894,1.789A9.951,9.951,0,0,1,37,52Z"/><path d="M11.71,6.293,8.538,3.122A3.828,3.828,0,0,0,3.124,8.536L6.3,11.707a1,1,0,0,0,1.414,0l4-4A1,1,0,0,0,11.71,6.293ZM7,9.586,4.538,7.122A1.829,1.829,0,1,1,7.124,4.536L9.589,7Z"/><path d="M58.174,2a3.8,3.8,0,0,0-2.707,1.122L52.3,6.293a1,1,0,0,0,0,1.414l4,4a1,1,0,0,0,1.414,0l3.171-3.171A3.828,3.828,0,0,0,58.174,2Zm1.293,5.122L57,9.586,54.417,7l2.464-2.464a1.829,1.829,0,1,1,2.586,2.586Z"/><path d="M12.3,10.707,31.068,29.479l-.79.832a1,1,0,0,0,1.45,1.378l19-20a1,1,0,1,0-1.45-1.378L32.446,28.029,13.71,9.293A1,1,0,0,0,12.3,10.707Z"/><path d="M55.054,13a1,1,0,0,0-1.05.948L52.191,49.31a10.371,10.371,0,0,0-1.654-1.278,1,1,0,1,0-1.069,1.69C50.624,50.453,52,51.615,52,53c0,3.311-8.214,7-20,7s-20-3.689-20-7c0-1.385,1.378-2.547,2.534-3.278a1,1,0,1,0-1.069-1.69,10.359,10.359,0,0,0-1.653,1.278L10,13.949a1,1,0,1,0-2,.1l2,39c0,.012.007.022.008.034C10.117,58.173,19.531,62,32,62s21.885-3.827,21.99-8.915c0-.012.008-.022.008-.034l2-39A1,1,0,0,0,55.054,13Z"/><path d="M45.693,34.049a28.255,28.255,0,0,1-17.38,0A1,1,0,0,0,27,35v.063a20.681,20.681,0,0,1-8.676-1.009A1,1,0,0,0,17,35v8.575a10.7,10.7,0,0,0,1.068,4.653,10.365,10.365,0,0,0,4.54,4.666l1.934,1a1,1,0,0,0,.915,0l1.935-1a10.176,10.176,0,0,0,1.454-.933,12.772,12.772,0,0,0,5.227,4.721L36.563,57.9a1,1,0,0,0,.879,0l2.487-1.216a12.729,12.729,0,0,0,5.72-5.595A12.363,12.363,0,0,0,47,45.48V35a1,1,0,0,0-1.31-.951ZM26.48,51.116,25,51.875l-1.477-.759a8.357,8.357,0,0,1-3.657-3.763A8.688,8.688,0,0,1,19,43.575V36.354a22.689,22.689,0,0,0,8,.724V45.06a9.95,9.95,0,0,0-5.448.99,1,1,0,0,0,.895,1.789,7.952,7.952,0,0,1,4.666-.76,12.408,12.408,0,0,0,.821,3.052A8.159,8.159,0,0,1,26.48,51.116ZM45,45.48a10.364,10.364,0,0,1-1.134,4.7,10.719,10.719,0,0,1-4.818,4.708l-2.048,1-2.049-1a10.723,10.723,0,0,1-4.818-4.708A10.376,10.376,0,0,1,29,45.48V36.344a30.312,30.312,0,0,0,16,0Z"/><path d="M40.555,49.161a7.983,7.983,0,0,1-7.1,0,1,1,0,1,0-.9,1.789,9.987,9.987,0,0,0,8.9,0,1,1,0,1,0-.9-1.789Z"/><path d="M39,43h3a1,1,0,0,0,0-2H39a1,1,0,0,0,0,2Z"/><path d="M36,42a1,1,0,0,0-1-1H32a1,1,0,0,0,0,2h3A1,1,0,0,0,36,42Z"/><path d="M22,42h2a1,1,0,0,0,0-2H22a1,1,0,0,0,0,2Z"/></g></svg>