<?xml version="1.0" encoding="UTF-8" standalone="no"?> <svg id="Capa_1" enable-background="new 0 0 512 512" height="512" viewBox="0 0 512 512" width="512" xmlns="http://www.w3.org/2000/svg"><g><g><path d="m335 350h-320c-8.284 0-15-6.716-15-15v-320c0-8.284 6.716-15 15-15h320c8.284 0 15 6.716 15 15v320c0 8.284-6.716 15-15 15z" fill="#ffcb00"/></g><path d="m335 350c8.284 0 15-6.716 15-15v-320c0-8.284-6.716-15-15-15h-79v350z" fill="#daaf00"/><g><path d="m416 431h-320c-8.284 0-15-6.716-15-15v-320c0-8.284 6.716-15 15-15h320c8.284 0 15 6.716 15 15v320c0 8.284-6.716 15-15 15z" fill="#ffd845"/></g><path d="m416 81h-160v350h160c8.284 0 15-6.716 15-15v-320c0-8.284-6.716-15-15-15z" fill="#ffcb00"/><g><g><path d="m397 512h-220c-8.284 0-15-6.716-15-15v-320c0-8.284 6.716-15 15-15h320c8.284 0 15 6.716 15 15v220c0 3.978-1.581 7.793-4.394 10.606l-100 100c-2.813 2.813-6.628 4.394-10.606 4.394z" fill="#ffe278"/></g></g><path d="m497 162h-241v350h141c3.978 0 7.793-1.581 10.606-4.394l100-100c2.813-2.813 4.394-6.628 4.394-10.606v-220c0-8.284-6.716-15-15-15z" fill="#ffd845"/><path d="m512 397h-100c-8.284 0-15 6.716-15 15v100c3.978 0 7.793-1.581 10.606-4.394l100-100c2.813-2.813 4.394-6.628 4.394-10.606z" fill="#ffcb00"/><g><path d="m437 252h-200c-8.284 0-15-6.716-15-15s6.716-15 15-15h200c8.284 0 15 6.716 15 15s-6.716 15-15 15z" fill="#556e82"/></g><g><path d="m437 312h-200c-8.284 0-15-6.716-15-15s6.716-15 15-15h200c8.284 0 15 6.716 15 15s-6.716 15-15 15z" fill="#556e82"/></g><g><path d="m357 372h-120c-8.284 0-15-6.716-15-15s6.716-15 15-15h120c8.284 0 15 6.716 15 15s-6.716 15-15 15z" fill="#556e82"/></g><g><path d="m337 432h-100c-8.284 0-15-6.716-15-15s6.716-15 15-15h100c8.284 0 15 6.716 15 15s-6.716 15-15 15z" fill="#556e82"/></g><g fill="#3c4655"><path d="m437 222h-181v30h181c8.284 0 15-6.716 15-15s-6.716-15-15-15z"/><path d="m437 282h-181v30h181c8.284 0 15-6.716 15-15s-6.716-15-15-15z"/><path d="m357 342h-101v30h101c8.284 0 15-6.716 15-15s-6.716-15-15-15z"/><path d="m337 402h-81v30h81c8.284 0 15-6.716 15-15s-6.716-15-15-15z"/></g></g></svg>