<?xml version="1.0" encoding="utf-8"?>
<!-- Generator: Adobe Illustrator 24.0.2, SVG Export Plug-In . SVG Version: 6.00 Build 0)  -->
<svg version="1.1" id="Layer_1" xmlns="http://www.w3.org/2000/svg" xmlns:xlink="http://www.w3.org/1999/xlink" x="0px" y="0px"
	 viewBox="0 0 480 480" style="enable-background:new 0 0 480 480;" xml:space="preserve">
<style type="text/css">
	.st0{fill:#80D8FF;}
	.st1{fill:#00E5FF;}
	.st2{fill:#82B1FF;}
	.st3{fill:#8C9EFF;}
	.st4{fill:#B388FF;}
	.st5{fill:#EA80FC;}
	.st6{fill:#FF80AB;}
	.st7{fill:#FF8A80;}
	.st8{fill:#FFFFFF;}
</style>
<path class="st0" d="M425.5,382.4c0.1-0.2,0.3-0.3,0.4-0.5l-0.4,0.1c-0.1,0.2-0.3,0.3-0.4,0.5L425.5,382.4z"/>
<path class="st1" d="M130.3,446.5c47.2,25.2,103.3,34.5,159.7,22.1c56.4-12.3,103.5-44.1,135.9-86.8L130.3,446.5z"/>
<path class="st0" d="M130.4,446.5L425.5,382c15-19.6,27-41.4,35.2-64.7l-389,85c17.1,17.7,37,32.7,58.6,44.2L130.4,446.5z"/>
<path class="st2" d="M473.3,257.4L35.2,353.2c10,18.1,22.4,34.6,36.5,49.2l388.9-84.9C467.4,298.3,471.8,278.2,473.3,257.4z"/>
<path class="st3" d="M473.3,257.4c1.6-22.1,0.3-44.7-4.7-67.4L11.3,290c5,22.7,13.2,43.9,23.9,63.2L473.3,257.4z"/>
<path class="st4" d="M468.7,190c-4.4-19.9-11.4-38.6-20.2-56l-442,95.2c-0.9,20,0.5,40.3,4.9,60.8L468.7,190z"/>
<path class="st5" d="M448.4,134.1c0.2,0.3,0.4,0.6,0.6,0.9c-12.9-25.5-30.1-48.1-50.5-67L24.2,149.8c-10.4,24.9-16.3,51.7-17.6,79.4
	L448.4,134.1z"/>
<path class="st6" d="M398.5,67.9c0.1,0.1,0.3,0.2,0.5,0.4c-20.4-18.8-44-33.9-69.6-44.5l-260.7,57c-18.7,20.2-33.6,43.6-44.3,69
	L398.5,67.9z"/>
<path class="st7" d="M68.6,80.8l260.7-57C286.7,6.1,238.5,0.7,190,11.3S100,46.9,68.6,80.8L68.6,80.8z"/>
<path class="st8" d="M240,29.3C123.6,29.3,29.3,123.6,29.3,240S123.6,450.7,240,450.7S450.7,356.4,450.7,240S356.3,29.3,240,29.3z
	 M345.3,290.5c0,30.2-24.5,54.6-54.6,54.6h-1.1c-19,0-34.8-11-37.7-29.8c-0.5-3.5-0.6-6.9-0.1-10.4c1.9-14.8,12.5-26.8,26.4-31
	l3.1-0.7l32.6-9.8c4.7-1.2,8-5.4,8-10.3v-79.7c0-6.6-5.7-11.6-12.2-10.5l-92.8,20.2c-7.1,1.3-12,7.4-12,14.6v128.1
	c0,30.2-22.3,54.6-52.5,54.6h-1.1c-19,0-36.7-12.9-39.6-31.7c-0.5-3.5-0.6-6.9-0.1-10.4c1.9-14.8,12.5-26.8,26.4-31l3.1-0.7
	l32.4-9.6c4.7-1.2,8-5.4,8-10.3V130.8c0-7.1,5.1-13.1,12-14.3L332.8,88c6.5-1.1,12.5,3.9,12.5,10.5V290.5z"/>
</svg>
