<?xml version="1.0" encoding="iso-8859-1"?>
<!-- Generator: Adobe Illustrator 21.0.0, SVG Export Plug-In . SVG Version: 6.00 Build 0)  -->
<svg version="1.1" id="Layer_1" xmlns="http://www.w3.org/2000/svg" xmlns:xlink="http://www.w3.org/1999/xlink" x="0px" y="0px"
	 viewBox="0 0 24 24" enable-background="new 0 0 24 24" xml:space="preserve">
<g>
	<path fill="#303C42" d="M22,3H4C2.8969727,3,2,3.8969727,2,5v12c0,1.1030273,0.8969727,2,2,2h18c1.1030273,0,2-0.8969727,2-2V5
		C24,3.8969727,23.1030273,3,22,3z"/>
	<path fill="#4FC3F7" d="M4,4h18c0.5512695,0,1,0.4487305,1,1v10.2929688l-7.1464844-7.1464844
		c-0.1953125-0.1953125-0.5117188-0.1953125-0.7070313,0L9.75,13.5429688l-1.8964844-1.8964844
		c-0.1953125-0.1953125-0.5117188-0.1953125-0.7070313,0L3,15.7929688V5C3,4.4487305,3.4487305,4,4,4z"/>
	<path fill="#7CB342" d="M22,18H4c-0.4902344,0-0.8805542-0.3615112-0.9651489-0.8278198L7.5,12.7070313l3.1464844,3.1464844
		c0.1953125,0.1953125,0.5117188,0.1953125,0.7070313,0s0.1953125-0.5117188,0-0.7070313L10.4570313,14.25L15.5,9.2070313l7.5,7.5
		V17C23,17.5512695,22.5512695,18,22,18z"/>
	<path opacity="0.1" d="M22.5,17.8462524v-1.6392212l-7-7L10.4570313,14.25l0.8964844,0.8964844
		c0.1953125,0.1953125,0.1953125,0.5117188,0,0.7070313s-0.5117188,0.1953125-0.7070313,0L7.5,12.7070313l-4.4651489,4.4651489
		C3.1194458,17.6384888,3.5097656,18,4,18h18C22.1860352,18,22.350647,17.9351196,22.5,17.8462524z"/>
	<path opacity="0.1" d="M22.5,7c0-1.378418-1.121582-2.5-2.5-2.5H3.1537476C3.0648804,4.649353,3,4.8139648,3,5v10.7929688
		l4.1464844-4.1464844c0.1953125-0.1953125,0.5117188-0.1953125,0.7070313,0L9.75,13.5429688l5.3964844-5.3964844
		c0.1953125-0.1953125,0.5117188-0.1953125,0.7070313,0L22.5,14.7929688V7z"/>
	<path fill="#303C42" d="M20,5H2C0.8969727,5,0,5.8969727,0,7v12c0,1.1030273,0.8969727,2,2,2h18c1.1030273,0,2-0.8969727,2-2V7
		C22,5.8969727,21.1030273,5,20,5z"/>
	<path fill="#4FC3F7" d="M2,6h18c0.5512695,0,1,0.4487305,1,1v10.2929688l-7.1464844-7.1464844
		c-0.1953125-0.1953125-0.5117188-0.1953125-0.7070313,0L7.75,15.5429688l-1.8964844-1.8964844
		c-0.1953125-0.1953125-0.5117188-0.1953125-0.7070313,0L1,17.7929688V7C1,6.4487305,1.4487305,6,2,6z"/>
	<path fill="#7CB342" d="M20,20H2c-0.4902344,0-0.8805542-0.3615112-0.9651489-0.8278198L5.5,14.7070313l3.1464844,3.1464844
		c0.1953125,0.1953125,0.5117188,0.1953125,0.7070313,0s0.1953125-0.5117188,0-0.7070313L8.4570313,16.25L13.5,11.2070313l7.5,7.5
		V19C21,19.5512695,20.5512695,20,20,20z"/>
	<path opacity="0.1" d="M20,18.5H2c-0.0877075,0-0.1671753-0.0239868-0.2473145-0.0456543l-0.7178345,0.7178345
		C1.1194458,19.6384888,1.5097656,20,2,20h18c0.5512695,0,1-0.4487305,1-1v-0.2929688l-0.4168701-0.4168701
		C20.4169312,18.413147,20.2220459,18.5,20,18.5z"/>
	<circle fill="#303C42" cx="7.5" cy="9.5" r="2.5"/>
	<circle fill="#FFCA28" cx="7.5" cy="9.5" r="1.5"/>
	<linearGradient id="SVGID_1_" gradientUnits="userSpaceOnUse" x1="0.0583642" y1="6.4315238" x2="23.9416351" y2="17.5684757">
		<stop  offset="0" style="stop-color:#FFFFFF;stop-opacity:0.2"/>
		<stop  offset="1" style="stop-color:#FFFFFF;stop-opacity:0"/>
	</linearGradient>
	<path fill="url(#SVGID_1_)" d="M22,3H4C2.8969727,3,2,3.8969727,2,5C0.8969727,5,0,5.8969727,0,7v12c0,1.1030273,0.8969727,2,2,2
		h18c1.1030273,0,2-0.8969727,2-2c1.1030273,0,2-0.8969727,2-2V5C24,3.8969727,23.1030273,3,22,3z"/>
</g>
<g>
</g>
<g>
</g>
<g>
</g>
<g>
</g>
<g>
</g>
<g>
</g>
<g>
</g>
<g>
</g>
<g>
</g>
<g>
</g>
<g>
</g>
<g>
</g>
<g>
</g>
<g>
</g>
<g>
</g>
</svg>
